<svg width="55" height="48" viewBox="0 0 55 48" fill="none" xmlns="http://www.w3.org/2000/svg">
<path d="M0.97 18.7998H15.03C15.2105 18.7998 15.324 18.8114 15.3961 18.8284C15.4275 18.8358 15.4448 18.8427 15.4531 18.8468C15.4571 18.855 15.464 18.8723 15.4714 18.9037C15.4884 18.9758 15.5 19.0893 15.5 19.2698V46.1698C15.5 46.666 15.0916 47.0798 14.59 47.0798H1.41C0.908446 47.0798 0.5 46.666 0.5 46.1698V19.2698C0.5 19.0893 0.51161 18.9758 0.528584 18.9037C0.53598 18.8723 0.542927 18.855 0.546948 18.8468C0.555181 18.8427 0.572459 18.8358 0.603895 18.8284C0.676034 18.8114 0.789472 18.7998 0.97 18.7998ZM15.4593 18.8503C15.4592 18.8503 15.4587 18.85 15.4577 18.8492C15.4588 18.8499 15.4593 18.8503 15.4593 18.8503ZM15.4506 18.8421C15.4498 18.8411 15.4495 18.8406 15.4495 18.8405C15.4495 18.8405 15.4499 18.841 15.4506 18.8421ZM0.550513 18.8405C0.550534 18.8406 0.55019 18.8411 0.549421 18.8421C0.550109 18.841 0.550493 18.8405 0.550513 18.8405ZM0.542313 18.8492C0.541336 18.85 0.540762 18.8503 0.54072 18.8503C0.540678 18.8503 0.541167 18.8499 0.542313 18.8492ZM5.53 23.1798C5.53 24.5459 6.63386 25.6498 8 25.6498C9.36614 25.6498 10.47 24.5459 10.47 23.1798C10.47 21.8137 9.36614 20.7098 8 20.7098C6.63386 20.7098 5.53 21.8137 5.53 23.1798Z" fill="#1597A0" stroke="black"/>
<path d="M8.1058 23.2498H7.99998C7.78413 23.2498 7.57198 23.1124 7.36024 22.8194C7.15421 22.5343 7.02148 22.1998 6.94526 22.0067C6.94144 21.9968 6.941 21.9847 6.94691 21.9712C6.9529 21.9575 6.96238 21.9492 6.97281 21.9451C6.98275 21.9412 6.99491 21.9407 7.00855 21.9467C7.02225 21.9527 7.03051 21.9622 7.0346 21.9726L7.49998 21.7898L7.03363 21.9701C7.19095 22.377 7.34235 22.6376 7.47318 22.8069C7.53906 22.8921 7.60087 22.9556 7.65695 23.0029C7.68501 23.0266 7.71156 23.0462 7.73633 23.0623C7.7487 23.0704 7.76058 23.0776 7.77194 23.084C7.77762 23.0872 7.78315 23.0902 7.78854 23.093L7.79651 23.097L7.80041 23.099L7.80234 23.0999L7.8033 23.1004C7.80378 23.1006 7.80426 23.1008 8.01998 22.6498L7.80426 23.1008L8.01276 23.2006L8.22381 23.1063C8.44738 23.0065 8.59279 22.7961 8.68218 22.6447C8.78701 22.4672 8.88769 22.2404 8.9839 21.9761C9.17723 21.4448 9.3721 20.707 9.54638 19.7796C9.89555 17.9216 10.17 15.2601 10.17 11.8798C10.17 8.49988 9.89813 5.83549 9.54497 3.97407C9.36872 3.04512 9.17004 2.30441 8.96948 1.77026C8.86966 1.5044 8.76406 1.27531 8.65243 1.09565C8.55469 0.938348 8.40063 0.731801 8.16959 0.637113L7.97157 0.555957L7.77615 0.643197C7.55258 0.743008 7.40717 0.953475 7.31778 1.10484C7.21295 1.28233 7.11228 1.50909 7.01606 1.77346C6.82274 2.3047 6.62787 3.04253 6.45358 3.96992C6.10441 5.82794 5.82998 8.48941 5.82998 11.8698C5.82998 13.8828 6.05146 16.8393 6.25265 18.6115C6.25397 18.63 6.24808 18.6474 6.23858 18.6597C6.22982 18.671 6.22347 18.6719 6.22023 18.6722L6.21205 18.6731L6.2039 18.6742C6.19571 18.6752 6.18454 18.6735 6.17284 18.6643C6.1612 18.6551 6.15808 18.6458 6.1575 18.64L6.15758 18.64L6.15654 18.6312C5.94821 16.8654 5.72998 13.8855 5.72998 11.8798C5.72998 11.6444 5.7376 8.70136 6.08512 5.82473C6.25947 4.38153 6.51575 2.9881 6.88556 1.96725C7.07115 1.45491 7.27344 1.07066 7.48286 0.82286C7.68754 0.580681 7.86092 0.509766 8.00998 0.509766C8.15903 0.509766 8.33242 0.580677 8.53709 0.822868C8.74651 1.07068 8.9488 1.45497 9.1344 1.96738C9.5042 2.98839 9.76049 4.38213 9.93484 5.82596C10.2824 8.70384 10.29 11.6494 10.29 11.8898C10.29 12.1302 10.2824 15.0732 9.93484 17.9485C9.76049 19.3911 9.50422 20.7835 9.13445 21.8036C8.94887 22.3155 8.7466 22.6994 8.53723 22.9469C8.37497 23.1388 8.23232 23.2231 8.1058 23.2498Z" fill="#1597A0" stroke="black"/>
<path d="M25.1132 18.7998H29.7771C29.8018 18.8314 29.8294 18.8666 29.8596 18.9052C30.0077 19.0943 30.2192 19.3654 30.4732 19.6932C30.9812 20.349 31.658 21.2309 32.3344 22.1365C33.0117 23.0433 33.6848 23.9688 34.1871 24.7135C34.4388 25.0867 34.6425 25.4069 34.7814 25.6527C34.8512 25.7762 34.8996 25.8722 34.9291 25.9414C34.9401 25.9673 34.9465 25.9848 34.95 25.9952V46.1798C34.95 46.676 34.5416 47.0898 34.04 47.0898H20.86C20.3585 47.0898 19.95 46.676 19.95 46.1798V25.995C19.9535 25.9847 19.9599 25.9671 19.9709 25.9411C20.0004 25.8718 20.0487 25.7759 20.1184 25.6523C20.2571 25.4065 20.4603 25.0864 20.7116 24.7131C21.213 23.9685 21.8848 23.043 22.5609 22.1362C23.236 21.2306 23.9116 20.3487 24.4187 19.6928C24.6722 19.365 24.8833 19.0939 25.0311 18.9048C25.0612 18.8663 25.0886 18.8313 25.1132 18.7998ZM24.97 23.1798C24.97 24.5459 26.0739 25.6498 27.44 25.6498C28.8062 25.6498 29.91 24.5459 29.91 23.1798C29.91 21.8137 28.8062 20.7098 27.44 20.7098C26.0739 20.7098 24.97 21.8137 24.97 23.1798Z" fill="#1597A0" stroke="black"/>
<path d="M27.46 22.65L27.2442 23.1011L27.4528 23.2008L27.6638 23.1066C27.8874 23.0068 28.0328 22.7963 28.1222 22.6449C28.227 22.4674 28.3277 22.2407 28.4239 21.9763C28.6172 21.4451 28.8121 20.7072 28.9864 19.7798C29.3355 17.9218 29.61 15.2604 29.61 11.88C29.61 8.49986 29.3356 5.83525 28.9798 3.97365C28.8023 3.04461 28.6023 2.30387 28.4007 1.76972C28.3004 1.50386 28.1944 1.27485 28.0825 1.09529C27.9845 0.938069 27.8303 0.731896 27.5996 0.637347L27.4016 0.556192L27.2061 0.643431C26.9823 0.743385 26.8368 0.954417 26.7476 1.10582C26.6428 1.28355 26.5422 1.51062 26.446 1.77534C26.2527 2.30729 26.0578 3.04598 25.8836 3.97396C25.5344 5.83316 25.26 8.4946 25.26 11.87C25.26 13.8749 25.4819 16.8348 25.6831 18.6161L25.683 18.6161L25.6844 18.6261C25.6855 18.6343 25.6837 18.6454 25.6745 18.6571C25.6653 18.6688 25.656 18.6719 25.6502 18.6725L25.642 18.6733L25.6339 18.6744C25.626 18.6754 25.6161 18.6738 25.6055 18.6654C25.5955 18.6573 25.5891 18.6464 25.5876 18.6318L25.5878 18.6318L25.5866 18.6217C25.3782 16.8456 25.16 13.8657 25.16 11.87C25.16 11.6346 25.1676 8.6916 25.5151 5.81497C25.6895 4.37177 25.9457 2.97833 26.3155 1.95748C26.5011 1.44515 26.7034 1.06089 26.9129 0.813095C27.1175 0.570916 27.2909 0.5 27.44 0.5C27.589 0.5 27.7624 0.570912 27.9671 0.813102C28.1765 1.06091 28.3788 1.4452 28.5644 1.95762C28.9342 2.97862 29.1905 4.37237 29.3648 5.81619C29.7124 8.69407 29.72 11.6396 29.72 11.88C29.72 12.1204 29.7124 15.0634 29.3648 17.9388C29.1905 19.3813 28.9342 20.7738 28.5644 21.7938C28.3789 22.3057 28.1766 22.6896 27.9672 22.9372C27.7626 23.1791 27.5892 23.25 27.44 23.25C27.2241 23.25 27.012 23.1127 26.8002 22.8196C26.5942 22.5345 26.4615 22.2 26.3853 22.0069C26.3814 21.997 26.381 21.985 26.3869 21.9714C26.3929 21.9577 26.4024 21.9495 26.4128 21.9454C26.4227 21.9415 26.4349 21.941 26.4485 21.9469C26.4622 21.9529 26.4705 21.9624 26.4746 21.9728L26.94 21.79L26.4736 21.9703C26.6309 22.3772 26.7823 22.6379 26.9132 22.8071C26.979 22.8923 27.0409 22.9558 27.0969 23.0031C27.125 23.0268 27.1516 23.0464 27.1763 23.0626C27.1887 23.0706 27.2006 23.0778 27.2119 23.0842C27.2176 23.0874 27.2231 23.0904 27.2285 23.0932L27.2365 23.0973L27.2404 23.0992L27.2423 23.1001L27.2433 23.1006C27.2438 23.1008 27.2442 23.1011 27.46 22.65Z" fill="#1597A0" stroke="black"/>
<path d="M39.39 26.2998C39.39 22.1559 42.7462 18.7998 46.89 18.7998C51.0339 18.7998 54.39 22.1559 54.39 26.2998V46.4598C54.39 46.8095 54.118 47.0798 53.78 47.0798H40C39.6691 47.0798 39.39 46.8066 39.39 46.4598V26.2998ZM44.45 23.1998C44.45 24.5459 45.5439 25.6398 46.89 25.6398C48.2362 25.6398 49.33 24.5459 49.33 23.1998C49.33 21.8537 48.2362 20.7598 46.89 20.7598C45.5439 20.7598 44.45 21.8537 44.45 23.1998Z" fill="#1597A0" stroke="black"/>
<path d="M46.91 22.65L46.6943 23.1011L46.9028 23.2008L47.1138 23.1066C47.3374 23.0068 47.4828 22.7963 47.5722 22.6449C47.677 22.4674 47.7777 22.2407 47.8739 21.9763C48.0672 21.4451 48.2621 20.7072 48.4364 19.7798C48.7856 17.9218 49.06 15.2604 49.06 11.88C49.06 8.49986 48.7856 5.83525 48.4298 3.97365C48.2523 3.04461 48.0523 2.30387 47.8507 1.76972C47.7504 1.50386 47.6444 1.27485 47.5325 1.09529C47.4345 0.938069 47.2803 0.731896 47.0496 0.637347L46.8516 0.556192L46.6562 0.643431C46.4323 0.743385 46.2868 0.954417 46.1976 1.10582C46.0928 1.28355 45.9922 1.51062 45.896 1.77534C45.7027 2.30729 45.5078 3.04598 45.3336 3.97396C44.9844 5.83316 44.71 8.4946 44.71 11.87C44.71 13.865 44.9319 16.8248 45.1331 18.6158L45.133 18.6158L45.1344 18.6261C45.1354 18.634 45.1338 18.6439 45.1254 18.6544C45.1173 18.6645 45.1064 18.6709 45.0918 18.6723L45.0839 18.6731L45.076 18.6741C45.066 18.6754 45.0595 18.6743 45.0556 18.6732C45.0513 18.672 45.0475 18.6699 45.0439 18.6671C45.0377 18.6621 45.0296 18.6521 45.0277 18.6318L45.0277 18.6318L45.0266 18.6221C44.8182 16.8356 44.6 13.8556 44.6 11.87C44.6 11.6346 44.6076 8.6916 44.9551 5.81497C45.1295 4.37177 45.3857 2.97833 45.7556 1.95748C45.9411 1.44515 46.1434 1.06089 46.3529 0.813095C46.5575 0.570916 46.7309 0.5 46.88 0.5C47.029 0.5 47.2024 0.570912 47.4071 0.813102C47.6165 1.06091 47.8188 1.4452 48.0044 1.95762C48.3742 2.97862 48.6305 4.37237 48.8048 5.81619C49.1524 8.69407 49.16 11.6396 49.16 11.88C49.16 12.1204 49.1524 15.0634 48.8048 17.9388C48.6305 19.3813 48.3742 20.7738 48.0044 21.7938C47.8189 22.3057 47.6166 22.6896 47.4072 22.9372C47.2049 23.1764 47.033 23.2484 46.8849 23.25C46.6708 23.2478 46.4603 23.1103 46.2502 22.8196C46.0442 22.5345 45.9115 22.2 45.8353 22.0069C45.8314 21.997 45.831 21.985 45.8369 21.9714C45.8429 21.9577 45.8524 21.9495 45.8628 21.9454C45.8728 21.9415 45.8849 21.941 45.8985 21.9469C45.9122 21.9529 45.9205 21.9624 45.9246 21.9728L46.39 21.79L45.9236 21.9703C46.0809 22.3772 46.2323 22.6379 46.3632 22.8071C46.4291 22.8923 46.4909 22.9558 46.5469 23.0031C46.575 23.0268 46.6016 23.0464 46.6263 23.0626C46.6387 23.0706 46.6506 23.0778 46.6619 23.0842C46.6676 23.0874 46.6731 23.0904 46.6785 23.0932L46.6865 23.0973L46.6904 23.0992L46.6923 23.1001L46.6933 23.1006C46.6938 23.1008 46.6943 23.1011 46.91 22.65Z" fill="#1597A0" stroke="black"/>
</svg>
